<?xml version="1.0" encoding="utf-8"?>
<!-- Generator: Adobe Illustrator 16.0.0, SVG Export Plug-In . SVG Version: 6.00 Build 0)  -->
<!DOCTYPE svg PUBLIC "-//W3C//DTD SVG 1.1//EN" "http://www.w3.org/Graphics/SVG/1.1/DTD/svg11.dtd">
<svg version="1.1" id="Layer_1" xmlns="http://www.w3.org/2000/svg" xmlns:xlink="http://www.w3.org/1999/xlink" x="0px" y="0px"
	 width="20px" height="20px" viewBox="0 0 20 20" enable-background="new 0 0 20 20" xml:space="preserve">
<g>
	<path fill="#E1E2E3" d="M16.676,19.113H3.324c-1.344,0-2.437-1.094-2.437-2.438V3.324c0-1.344,1.093-2.437,2.437-2.437h13.352
		c1.344,0,2.438,1.093,2.438,2.437v13.352C19.113,18.02,18.02,19.113,16.676,19.113z M3.324,1.843c-0.817,0-1.481,0.664-1.481,1.481
		v13.352c0,0.817,0.664,1.482,1.481,1.482h13.352c0.817,0,1.482-0.665,1.482-1.482V3.324c0-0.817-0.665-1.481-1.482-1.481H3.324z"/>
</g>
</svg>
