<?xml version="1.0" encoding="utf-8"?>
<!-- Generator: Adobe Illustrator 16.0.0, SVG Export Plug-In . SVG Version: 6.00 Build 0)  -->
<!DOCTYPE svg PUBLIC "-//W3C//DTD SVG 1.1//EN" "http://www.w3.org/Graphics/SVG/1.1/DTD/svg11.dtd">
<svg version="1.1" id="Layer_1" xmlns="http://www.w3.org/2000/svg" xmlns:xlink="http://www.w3.org/1999/xlink" x="0px" y="0px"
	 width="20px" height="20px" viewBox="0 0 20 20" enable-background="new 0 0 20 20" xml:space="preserve">
<path fill="#dd2808" d="M19.035,16.985c0,1.132-0.918,2.05-2.05,2.05H3.015c-1.132,0-2.05-0.918-2.05-2.05V3.015
	c0-1.132,0.918-2.05,2.05-2.05h13.971c1.132,0,2.05,0.918,2.05,2.05V16.985z"/>
<path fill="#FFFFFF" d="M15.062,6.496c-0.43-0.43-1.127-0.43-1.557,0l-4.674,4.671L6.495,8.832c-0.43-0.43-1.127-0.43-1.557,0
	c-0.431,0.43-0.431,1.127,0,1.558l3.114,3.113c0.43,0.432,1.127,0.432,1.558,0l5.451-5.45C15.493,7.623,15.493,6.926,15.062,6.496z"
	/>
</svg>
